HIERARCHY
ROOT Hips
{
    OFFSET 0.000000 0.000000 0.000000
    CHANNELS 6 Xposition Yposition Zposition Zrotation Xrotation Yrotation
        JOINT Chest
        {
            OFFSET -0.000000 31.571314 -0.000000
            CHANNELS 3 Zrotation Xrotation Yrotation
            JOINT Neck
            {
                OFFSET -0.000000 23.394884 0.000000
                CHANNELS 3 Zrotation Xrotation Yrotation
                JOINT Head
                {
                    OFFSET -0.000000 10.877778 0.000000
                    CHANNELS 3 Zrotation Xrotation Yrotation
                    End Site
                    {
                        OFFSET -0.000000 16.811111 0.000000
                    }
                }
            }
            JOINT LeftCollar
            {
                OFFSET -0.000000 23.394884 0.000000
                CHANNELS 3 Zrotation Xrotation Yrotation
                JOINT LeftShoulder
                {
                    OFFSET 21.500002 -0.000000 0.000000
                    CHANNELS 3 Zrotation Xrotation Yrotation
                    JOINT LeftElbow
                    {
                        OFFSET 24.792776 0.000000 0.000000
                        CHANNELS 3 Zrotation Xrotation Yrotation
                        JOINT LeftWrist
                        {
                            OFFSET 26.439411 0.000000 0.000000
                            CHANNELS 3 Zrotation Xrotation Yrotation
                            End Site
                            {
                                OFFSET 0.000000 -14.833334 0.000000
                            }
                        }
                    }
                }
            }
            JOINT RightCollar
            {
                OFFSET -0.000000 23.394884 0.000000
                CHANNELS 3 Zrotation Xrotation Yrotation
                JOINT RightShoulder
                {
                    OFFSET -21.500002 0.000000 0.000000
                    CHANNELS 3 Zrotation Xrotation Yrotation
                    JOINT RightElbow
                    {
                        OFFSET -24.792776 0.000000 0.000000
                        CHANNELS 3 Zrotation Xrotation Yrotation
                        JOINT RightWrist
                        {
                            OFFSET -26.439411 0.000000 0.000000
                            CHANNELS 3 Zrotation Xrotation Yrotation
                            End Site
                            {
                                OFFSET -0.000000 -14.833334 0.000000
                            }
                        }
                    }
                }
            }
        }
    JOINT LeftHip
    {
        OFFSET 11.866667 0.000000 0.000000
        CHANNELS 3 Zrotation Xrotation Yrotation
        JOINT LeftKnee
        {
            OFFSET -0.000000 -38.580112 0.000000
            CHANNELS 3 Zrotation Xrotation Yrotation
            JOINT LeftAnkle
            {
                OFFSET -0.000000 -41.767254 0.000000
                CHANNELS 3 Zrotation Xrotation Yrotation
                End Site
                {
                    OFFSET -0.000000 -4.944444 16.811111
                }
            }
        }
    }
    JOINT RightHip
    {
        OFFSET -11.866667 0.000000 0.000000
        CHANNELS 3 Zrotation Xrotation Yrotation
        JOINT RightKnee
        {
            OFFSET -0.000000 -38.580112 0.000000
            CHANNELS 3 Zrotation Xrotation Yrotation
            JOINT RightAnkle
            {
                OFFSET -0.000000 -41.767254 0.000000
                CHANNELS 3 Zrotation Xrotation Yrotation
                End Site
                {
                    OFFSET -0.000000 -4.944444 16.811111
                }
            }
        }
    }
}
MOTION
Frames:    15
Frame Time:    0.010000
78.517021    90.426399    -29.857742    -3.698900    5.456069    -56.114986    -3.712539    20.418375    20.747797    -6.582605    -2.175275    -9.542957    21.953478    -31.419756    -3.162338    -11.930142    -0.803692    7.746671    -43.660923    43.567959    -13.747142    11.913702    -7.508323    -64.692337    125.005035    -4.115025    24.106688    17.403873    1.559159    9.527579    -69.145126    61.643391    131.871246    -41.919128    -8.158474    21.247528    -99.291046    -1.819873    -46.739395    17.169601    -15.017241    5.230747    -0.468160    17.022673    -21.329571    -22.942799    -7.062389    19.352077    -4.402025    -1.081672    4.149583    1.107028    22.523008    3.199054    7.046576    -6.392605    -30.217735    
78.439400    90.330360    -30.141794    -3.605807    5.186904    -56.796463    -3.750478    20.121628    20.449411    -6.197536    -2.318473    -8.912871    21.194147    -30.819441    -2.874692    -12.031859    -0.837508    7.764445    -42.983803    44.902260    -14.580966    12.180675    -7.864339    -65.081367    125.264900    -2.619031    25.489389    17.371752    1.440657    8.739128    -70.066544    61.882507    133.137512    -41.659195    -8.159811    21.429468    -100.292671    -0.617717    -47.369404    17.164288    -14.652802    5.277512    -0.491863    16.886202    -20.902246    -23.099800    -7.145612    19.432758    -4.371551    -0.909398    4.416021    1.126877    22.045988    2.455698    7.118684    -6.991720    -30.308590    
78.357338    90.228500    -30.442575    -3.508733    4.919385    -57.478039    -3.818826    19.821789    20.085760    -5.829797    -2.534530    -8.264770    20.472897    -30.075472    -2.573586    -12.151921    -0.814006    7.823068    -42.114925    46.254097    -15.693003    12.557186    -8.247057    -65.353920    125.479530    -0.847409    27.068865    17.400743    1.333595    8.002367    -70.650566    62.305946    133.987152    -41.411716    -8.181468    21.681128    -101.152588    0.468297    -47.838417    17.169628    -14.313264    5.330774    -0.516396    16.776522    -20.468052    -23.269781    -7.224210    19.504431    -4.353516    -0.688106    4.508865    1.105266    21.471552    1.701887    7.022784    -7.568831    -30.232740    
78.270058    90.122078    -30.759388    -3.416291    4.655394    -58.154419    -3.897307    19.528267    19.646339    -5.490099    -2.837126    -7.608080    19.791599    -29.172012    -2.268539    -12.288319    -0.872785    7.906099    -41.153252    47.641521    -16.976076    13.227594    -8.868820    -65.499069    125.385406    1.091970    28.694292    17.474781    1.232426    7.335124    -70.943909    62.890957    134.464951    -41.175964    -8.226103    21.978155    -101.908676    1.444771    -48.132313    17.188690    -13.994185    5.396585    -0.535601    16.694469    -20.039474    -23.451773    -7.298305    19.568132    -4.347791    -0.407528    4.417839    1.040650    20.797581    1.024253    6.781363    -8.099138    -30.010815    
78.176842    90.012550    -31.091198    -3.334866    4.396930    -58.825684    -3.969001    19.248116    19.131168    -5.177509    -3.217506    -6.946822    19.145555    -28.126137    -1.959391    -12.477640    -0.870970    7.991863    -40.033718    48.813847    -18.450516    13.846584    -9.305280    -65.526962    125.348923    3.253198    30.312542    17.575401    1.143215    6.746430    -70.958298    63.595329    134.585541    -40.931690    -8.283207    22.311649    -102.596573    2.317618    -48.238407    17.224878    -13.689819    5.483149    -0.545352    16.639925    -19.630653    -23.643442    -7.370478    19.629036    -4.353788    -0.063573    4.155834    0.935091    20.029848    0.505676    6.433489    -8.572110    -29.676107    
78.076683    89.901505    -31.436766    -3.270039    4.145832    -59.497719    -4.020992    18.987133    18.551064    -4.883283    -3.645538    -6.276254    18.524132    -26.986542    -1.636634    -12.722454    -0.905483    8.058965    -38.844215    49.775612    -20.024439    14.551699    -9.798560    -65.439034    125.105194    5.437558    31.780827    17.687576    1.060495    6.238883    -70.715523    64.369400    134.377914    -40.688522    -8.348096    22.646500    -103.233589    3.079476    -48.148643    17.283281    -13.390693    5.604652    -0.543783    16.610476    -19.259123    -23.841574    -7.444735    19.694967    -4.369126    0.343063    3.753870    0.790765    19.181032    0.217356    6.026578    -8.985950    -29.265820    
77.968040    89.790688    -31.795130    -3.228377    3.904157    -60.180950    -4.043264    18.750376    17.925886    -4.591774    -4.079243    -5.588637    17.907869    -25.817570    -1.287578    -13.042725    -0.930915    8.083760    -37.610714    50.400265    -21.619051    15.120510    -10.095065    -65.280403    124.888664    7.608196    33.052536    17.797092    0.990032    5.808030    -70.204727    65.167076    133.842239    -40.429779    -8.410774    22.974602    -103.845131    3.735826    -47.857872    17.371988    -13.083303    5.783356    -0.530710    16.602596    -18.945461    -24.042658    -7.525572    19.772762    -4.387700    0.808560    3.256317    0.608661    18.268866    0.215327    5.605777    -9.341998    -28.821068    
77.848930    89.681984    -32.165920    -3.218559    3.674325    -60.887104    -4.027588    18.542988    17.279263    -4.285819    -4.476487    -4.874121    17.272449    -24.682472    -0.900015    -13.445654    -0.959738    8.044031    -36.399361    50.657116    -23.144823    15.507256    -10.220847    -65.091621    124.695885    9.609033    34.006161    17.894136    0.922605    5.445570    -69.460892    65.942200    133.026932    -40.180073    -8.469148    23.254955    -104.430168    4.276187    -47.386040    17.501406    -12.751139    6.045811    -0.506840    16.612978    -18.707445    -24.242281    -7.615665    19.864182    -4.399084    1.328890    2.718272    0.390359    17.312113    0.534049    5.206760    -9.642439    -28.389133    
77.717720    89.577522    -32.549374    -3.249567    3.459815    -61.624462    -3.966332    18.369473    16.631174    -3.949652    -4.804100    -4.123700    16.593241    -23.628145    -0.465303    -13.933883    -0.983514    7.918678    -35.268700    50.525833    -24.516924    15.623171    -10.115218    -64.919617    124.626030    11.342302    34.548813    17.969555    0.863698    5.138459    -68.502647    66.654167    131.965225    -39.933292    -8.511432    23.479532    -104.997391    4.720246    -46.773327    17.681391    -12.379321    6.409993    -0.473905    16.638332    -18.551516    -24.435825    -7.714004    19.966187    -4.389491    1.899654    2.199929    0.139318    16.327667    1.180915    4.854508    -9.890583    -28.023390    
77.574158    89.479790    -32.946236    -3.326701    3.266539    -62.394104    -3.852161    18.231266    15.991577    -3.569645    -5.045503    -3.333877    15.846890    -22.678507    0.018530    -14.499147    -1.012080    7.692160    -34.269543    50.040680    -25.676350    15.420997    -9.805025    -64.791580    124.749832    12.716802    34.587906    18.019194    0.811878    4.870456    -67.368767    67.269394    130.709259    -39.711994    -8.532248    23.622852    -105.533722    5.078020    -46.075775    17.918695    -11.960843    6.872579    -0.435339    16.674789    -18.466129    -24.618847    -7.815202    20.073557    -4.343526    2.513040    1.755541    -0.139404    15.329862    2.136493    4.562784    -10.090986    -27.777769    
77.419540    89.391518    -33.357555    -3.450511    3.102185    -63.190025    -3.678644    18.128723    15.359544    -3.136771    -5.204594    -2.505229    15.015974    -21.836819    0.547902    -15.127241    -1.038629    7.363461    -33.413189    49.251362    -26.615215    14.918768    -9.271214    -64.712921    125.056274    13.680656    34.103649    18.040802    0.769285    4.626983    -66.080811    67.766525    129.292892    -39.511425    -8.541960    23.682547    -106.043793    5.376031    -45.329659    18.215956    -11.497478    7.408984    -0.395403    16.717531    -18.424854    -24.787169    -7.910198    20.179407    -4.246318    3.158375    1.427444    -0.438905    14.329323    3.352904    4.334403    -10.246927    -27.696527    
77.256187    89.315353    -33.784622    -3.618279    2.975332    -64.002289    -3.440477    18.061256    14.726131    -2.648121    -5.294772    -1.640589    14.093222    -21.097200    1.118961    -15.798640    -1.040678    6.944005    -32.676800    48.221462    -27.376431    14.108608    -8.552299    -64.683914    125.608910    14.260776    33.123180    18.035404    0.720253    4.394963    -64.717392    68.129379    127.805550    -39.364380    -8.531150    23.633858    -106.498886    5.599750    -44.598278    18.573631    -10.996574    7.981962    -0.358872    16.760807    -18.395090    -24.935841    -7.987762    20.277260    -4.083615    3.824147    1.245712    -0.751840    13.332936    4.754039    4.163003    -10.358263    -27.801960    
77.086533    89.253601    -34.228874    -3.826252    2.894035    -64.820396    -3.133350    18.026857    14.078587    -2.110789    -5.329232    -0.737540    13.085467    -20.453545    1.728392    -16.485401    -1.019804    6.460123    -32.028999    47.062683    -28.026072    13.090156    -7.747466    -64.678955    126.309822    14.486718    31.719769    18.001284    0.683339    4.166727    -63.291336    68.346870    126.264427    -39.234493    -8.475104    23.512190    -106.918732    5.785564    -43.933388    18.991983    -10.466305    8.552499    -0.330734    16.797619    -18.346855    -25.059097    -8.035338    20.363916    -3.842284    4.501250    1.228785    -1.071511    12.342893    6.239220    4.036722    -10.420163    -28.084969    
76.913048    89.207802    -34.691765    -4.069078    2.864272    -65.635345    -2.755024    18.020380    13.404046    -1.540258    -5.319052    0.202639    12.009926    -19.896751    2.377020    -17.156631    -0.989363    5.947871    -31.440125    45.905483    -28.629414    11.979604    -6.950868    -64.674934    127.092209    14.465392    30.030445    17.940521    0.630455    3.940933    -61.939060    68.421204    124.810402    -39.174629    -8.412154    23.272264    -107.291336    5.935396    -43.358723    19.470032    -9.914444    9.084671    -0.316279    16.819519    -18.253073    -25.152189    -8.038739    20.441236    -3.512836    5.182076    1.381532    -1.392981    11.358743    7.698099    3.942247    -10.425473    -28.507576    
76.738464    89.178490    -35.174465    -4.337873    2.888530    -66.439362    -2.308352    18.031372    12.690610    -0.954934    -5.273554    1.166549    10.890744    -19.412548    3.071766    -17.781874    -0.948424    5.445412    -30.885687    44.858158    -29.246906    10.875836    -6.222794    -64.658852    127.916664    14.327266    28.212248    17.851814    0.604688    3.721311    -60.586903    68.372841    123.364983    -39.096191    -8.314447    23.009226    -107.653122    6.076016    -42.867737    20.003273    -9.350182    9.545784    -0.321530    16.817936    -18.085648    -25.212870    -7.983180    20.514273    -3.092823    5.858435    1.690613    -1.713126    10.379293    9.030789    3.866809    -10.366515    -29.011580    
